<svg id="Layer_1" data-name="Layer 1" xmlns="http://www.w3.org/2000/svg" viewBox="0 0 1440 900"><defs><style>.cls-1{fill:#ee3524;}.cls-2{fill:#231f20;}</style></defs><rect class="cls-1" width="1440" height="900"/><polyline class="cls-2" points="1440 501.75 1440 900 0 900"/><polygon class="cls-2" points="1158.32 601.86 1199.81 312.5 1230.66 601.86 1158.32 601.86"/><path class="cls-2" d="M1271.13,335.05l-60.9-16.27a18.61,18.61,0,0,0-7.51-16.52l44.18-46.07-35.72-18.93-16.45,61.6a18.67,18.67,0,0,0-14.64,3.8l-44.88-43-18.93,35.72,57.94,15.48a18.61,18.61,0,0,0,6.14,21.16L1137,377.16l35.72,18.93,16.15-60.48a18.62,18.62,0,0,0,18.24-8l45,43.19Z"/><path class="cls-2" d="M1372.18,78.64a29.05,29.05,0,0,0,1.2-8.2c0-23.16-28.06-41.93-62.68-41.93-27.93,0-51.58,12.22-59.68,29.11-1,0-2,0-3,0-34.62,0-62.68,18.77-62.68,41.92s28.06,41.93,62.68,41.93c18,0,34.16-5.07,45.59-13.17,6.35,18.65,31.28,32.58,61.09,32.58,34.62,0,62.68-18.78,62.68-41.93C1417.38,99.8,1398.29,83.7,1372.18,78.64Z"/><path class="cls-2" d="M297.24,313.14a29,29,0,0,0,1.21-8.2c0-23.16-28.07-41.93-62.69-41.93-27.93,0-51.58,12.23-59.68,29.11-1,0-2-.05-3-.05-34.61,0-62.68,18.77-62.68,41.93s28.07,41.92,62.68,41.92c18,0,34.16-5.06,45.59-13.17,6.36,18.66,31.29,32.58,61.1,32.58,34.61,0,62.68-18.77,62.68-41.93C342.45,334.31,323.35,318.2,297.24,313.14Z"/><path class="cls-2" d="M738.8,202.53A92,92,0,0,1,624.76,84a92,92,0,1,0,155.45,91.93A91.55,91.55,0,0,1,738.8,202.53Z"/></svg>